# xmcd
#
# Track frame offsets: 
#        150
#        9696
#        23809
#        40945
#        53539
#        76763
#        87087
#        102217
#        116622
#        135067
#
# Disc length: 2049 seconds
#
# Revision: 0
# Processed by: cddbd v1.5.2PL0 Copyright (c) Steve Scherf et al.
# Submitted via: ExactAudioCopy v1.0b4
#
DISCID=6507ff0a
DTITLE=Barrence Whitfield And The Savages - Live Emulsified (LP)
DYEAR=1989
DGENRE=Blues
TTITLE0=Bloddy Mary
TTITLE1=Rockin' The Mule In Kansas
TTITLE2=Madhouse
TTITLE3=Big Fat Mama
TTITLE4=The Girl From Outer Space
TTITLE5=Is It True
TTITLE6=Hi Hi Baby
TTITLE7=Big Mamou
TTITLE8=Lizzie Leaps In
TTITLE9=Sadie Green
EXTD=
EXTT0=
EXTT1=
EXTT2=
EXTT3=
EXTT4=
EXTT5=
EXTT6=
EXTT7=
EXTT8=
EXTT9=
PLAYORDER=
